<?xml version="1.0" encoding="UTF-8"?>
<!DOCTYPE svg PUBLIC "-//W3C//DTD SVG 1.1//EN" "http://www.w3.org/Graphics/SVG/1.1/DTD/svg11.dtd">
<!-- Creator: CorelDRAW 2020 (64 Bit) -->
<svg xmlns="http://www.w3.org/2000/svg" xml:space="preserve" width="10.16mm" height="10.16mm" version="1.1" style="shape-rendering:geometricPrecision; text-rendering:geometricPrecision; image-rendering:optimizeQuality; fill-rule:evenodd; clip-rule:evenodd"
viewBox="0 0 6.13 6.13"
 xmlns:xlink="http://www.w3.org/1999/xlink"
 xmlns:xodm="http://www.corel.com/coreldraw/odm/2003">
 <defs>
  <style type="text/css">
   <![CDATA[
    .fil0 {fill:#FF9D1F}
   ]]>
  </style>
 </defs>
 <g id="Camada_x0020_1">
  <metadata id="CorelCorpID_0Corel-Layer"/>
  <path class="fil0" d="M6.13 3.07c0,1.69 -1.37,3.07 -3.07,3.07 -1.69,0 -3.07,-1.37 -3.07,-3.07 0,-1.69 1.37,-3.07 3.07,-3.07 1.69,0 3.07,1.37 3.07,3.07zm-3.43 -0.54c0,-0.1 -0.08,-0.18 -0.18,-0.18 -0.1,0 -0.18,0.08 -0.18,0.18 0,0.2 -0.16,0.36 -0.36,0.36 -0.2,0 -0.36,-0.16 -0.36,-0.36 0,-0.1 -0.08,-0.18 -0.18,-0.18 -0.1,0 -0.18,0.08 -0.18,0.18 0,0.4 0.32,0.72 0.72,0.72 0.4,0 0.72,-0.32 0.72,-0.72zm1.98 -0.18c-0.1,0 -0.18,0.08 -0.18,0.18 0,0.2 -0.16,0.36 -0.36,0.36 -0.2,0 -0.36,-0.16 -0.36,-0.36 0,-0.1 -0.08,-0.18 -0.18,-0.18 -0.1,0 -0.18,0.08 -0.18,0.18 0,0.4 0.32,0.72 0.72,0.72 0.4,0 0.72,-0.32 0.72,-0.72 0,-0.1 -0.08,-0.18 -0.18,-0.18zm-3.18 -0.58c0.23,0.21 0.53,0.32 0.84,0.32 0.1,0 0.18,-0.08 0.18,-0.18 0,-0.1 -0.08,-0.18 -0.18,-0.18 -0.22,0 -0.43,-0.08 -0.6,-0.23 -0.07,-0.07 -0.19,-0.06 -0.25,0.01 -0.07,0.07 -0.06,0.19 0.01,0.25zm2.28 0.32c0.31,0 0.61,-0.11 0.84,-0.32 0.07,-0.07 0.08,-0.18 0.01,-0.25 -0.07,-0.07 -0.18,-0.08 -0.25,-0.01 -0.16,0.15 -0.38,0.23 -0.6,0.23 -0.1,0 -0.18,0.08 -0.18,0.18 0,0.1 0.08,0.18 0.18,0.18zm-0.72 1.52c-0.69,0 -1.26,0.56 -1.26,1.26 0,0.1 0.08,0.18 0.18,0.18l2.16 0c0.1,0 0.18,-0.08 0.18,-0.18 0,-0.69 -0.56,-1.26 -1.26,-1.26z"/>
 </g>
</svg>
