<?xml version="1.0" encoding="UTF-8"?>
<!DOCTYPE svg PUBLIC "-//W3C//DTD SVG 1.1//EN" "http://www.w3.org/Graphics/SVG/1.1/DTD/svg11.dtd">
<!-- Creator: CorelDRAW 2020 (64 Bit) -->
<svg xmlns="http://www.w3.org/2000/svg" xml:space="preserve" width="10.16mm" height="10.16mm" version="1.1" style="shape-rendering:geometricPrecision; text-rendering:geometricPrecision; image-rendering:optimizeQuality; fill-rule:evenodd; clip-rule:evenodd"
viewBox="0 0 6.35 6.35"
 xmlns:xlink="http://www.w3.org/1999/xlink"
 xmlns:xodm="http://www.corel.com/coreldraw/odm/2003">
 <defs>
  <style type="text/css">
   <![CDATA[
    .fil0 {fill:#FF9D1F}
   ]]>
  </style>
 </defs>
 <g id="Camada_x0020_1">
  <metadata id="CorelCorpID_0Corel-Layer"/>
  <path class="fil0" d="M3.18 0c-1.71,0 -3.18,1.47 -3.18,3.18 0,1.75 1.43,3.18 3.18,3.18 1.75,0 3.18,-1.43 3.18,-3.18 0,-1.71 -1.46,-3.18 -3.18,-3.18zm-0.56 2.69c0,-0.31 -0.25,-0.56 -0.56,-0.56 -0.31,0 -0.56,0.25 -0.56,0.56 0,0.31 0.25,0.56 0.56,0.56 0.31,0 0.56,-0.25 0.56,-0.56zm1.67 -0.56c-0.31,0 -0.56,0.25 -0.56,0.56 0,0.31 0.25,0.56 0.56,0.56 0.31,0 0.56,-0.25 0.56,-0.56 0,-0.31 -0.25,-0.56 -0.56,-0.56zm0 1.49c-0.1,0 -0.19,0.08 -0.19,0.19 0,0.51 -0.42,0.93 -0.93,0.93 -0.51,0 -0.93,-0.42 -0.93,-0.93 0,-0.1 -0.08,-0.19 -0.19,-0.19 -0.1,0 -0.19,0.08 -0.19,0.19 0,0.72 0.58,1.3 1.3,1.3 0.72,0 1.3,-0.58 1.3,-1.3 0,-0.1 -0.08,-0.19 -0.19,-0.19z"/>
 </g>
</svg>
