<?xml version="1.0" encoding="UTF-8"?>
<!DOCTYPE svg PUBLIC "-//W3C//DTD SVG 1.1//EN" "http://www.w3.org/Graphics/SVG/1.1/DTD/svg11.dtd">
<!-- Creator: CorelDRAW 2020 (64 Bit) -->
<svg xmlns="http://www.w3.org/2000/svg" xml:space="preserve" width="10.16mm" height="10.16mm" version="1.1" style="shape-rendering:geometricPrecision; text-rendering:geometricPrecision; image-rendering:optimizeQuality; fill-rule:evenodd; clip-rule:evenodd"
viewBox="0 0 6.59 6.59"
 xmlns:xlink="http://www.w3.org/1999/xlink"
 xmlns:xodm="http://www.corel.com/coreldraw/odm/2003">
 <defs>
  <style type="text/css">
   <![CDATA[
    .fil0 {fill:#FF9D1F}
   ]]>
  </style>
 </defs>
 <g id="Camada_x0020_1">
  <metadata id="CorelCorpID_0Corel-Layer"/>
  <path class="fil0" d="M6.59 3.29c0,1.82 -1.47,3.29 -3.29,3.29 -1.82,0 -3.29,-1.47 -3.29,-3.29 0,-1.82 1.47,-3.29 3.29,-3.29 1.82,0 3.29,1.47 3.29,3.29zm-4.81 -0.17l0.36 -0.19 0.36 0.19c0.07,0.04 0.15,0.03 0.2,-0.01 0.06,-0.04 0.09,-0.12 0.08,-0.19l-0.07 -0.41 0.29 -0.29c0.05,-0.05 0.07,-0.13 0.05,-0.2 -0.02,-0.07 -0.08,-0.12 -0.16,-0.13l-0.41 -0.06 -0.18 -0.37c-0.06,-0.13 -0.28,-0.13 -0.35,0l-0.18 0.37 -0.41 0.06c-0.07,0.01 -0.13,0.06 -0.16,0.13 -0.02,0.07 -0,0.15 0.05,0.2l0.29 0.29 -0.07 0.41c-0.01,0.07 0.02,0.15 0.08,0.19 0.06,0.04 0.14,0.05 0.2,0.01zm3.6 -1.09c-0.02,-0.07 -0.08,-0.12 -0.16,-0.13l-0.41 -0.06 -0.18 -0.37c-0.06,-0.13 -0.28,-0.13 -0.35,0l-0.18 0.37 -0.41 0.06c-0.07,0.01 -0.13,0.06 -0.16,0.13 -0.02,0.07 -0,0.15 0.05,0.2l0.29 0.29 -0.07 0.41c-0.01,0.07 0.02,0.15 0.08,0.19 0.06,0.04 0.14,0.05 0.2,0.01l0.36 -0.19 0.36 0.19c0.07,0.04 0.15,0.03 0.2,-0.01 0.06,-0.04 0.09,-0.12 0.08,-0.19l-0.07 -0.41 0.29 -0.29c0.05,-0.05 0.07,-0.13 0.05,-0.2zm-0.53 1.46l-3.09 0c-0.11,0 -0.19,0.09 -0.19,0.19 0,0.96 0.78,1.74 1.74,1.74 0.96,0 1.74,-0.78 1.74,-1.74 0,-0.11 -0.09,-0.19 -0.19,-0.19z"/>
 </g>
</svg>
