<?xml version="1.0" encoding="UTF-8"?>
<!DOCTYPE svg PUBLIC "-//W3C//DTD SVG 1.1//EN" "http://www.w3.org/Graphics/SVG/1.1/DTD/svg11.dtd">
<!-- Creator: CorelDRAW 2020 (64 Bit) -->
<svg xmlns="http://www.w3.org/2000/svg" xml:space="preserve" width="10.1601mm" height="10.1601mm" version="1.1" style="shape-rendering:geometricPrecision; text-rendering:geometricPrecision; image-rendering:optimizeQuality; fill-rule:evenodd; clip-rule:evenodd"
viewBox="0 0 6.24 6.24"
 xmlns:xlink="http://www.w3.org/1999/xlink"
 xmlns:xodm="http://www.corel.com/coreldraw/odm/2003">
 <defs>
  <style type="text/css">
   <![CDATA[
    .fil0 {fill:#FF9D1F}
   ]]>
  </style>
 </defs>
 <g id="Camada_x0020_1">
  <metadata id="CorelCorpID_0Corel-Layer"/>
  <path class="fil0" d="M6.24 3.12c0,1.72 -1.4,3.12 -3.12,3.12 -1.72,0 -3.12,-1.4 -3.12,-3.12 0,-1.72 1.4,-3.12 3.12,-3.12 1.72,0 3.12,1.4 3.12,3.12zm-3.49 -0.18l0 -0.18c0,-0.1 -0.08,-0.18 -0.18,-0.18l-1.1 0c-0.1,0 -0.18,0.08 -0.18,0.18l0 0.18c0,0.4 0.33,0.73 0.73,0.73 0.4,0 0.73,-0.33 0.73,-0.73zm2.01 -0.37l-1.1 0c-0.1,0 -0.18,0.08 -0.18,0.18l0 0.18c0,0.4 0.33,0.73 0.73,0.73 0.4,0 0.73,-0.33 0.73,-0.73l0 -0.18c0,-0.1 -0.08,-0.18 -0.18,-0.18zm-0.55 -0.37l0.37 0c0.1,0 0.18,-0.08 0.18,-0.18 0,-0.1 -0.08,-0.18 -0.18,-0.18l-0.37 0c-0.3,0 -0.55,-0.25 -0.55,-0.55 0,-0.1 -0.08,-0.18 -0.18,-0.18 -0.1,0 -0.18,0.08 -0.18,0.18 0,0.5 0.41,0.91 0.91,0.91zm-2.56 0c0.1,0 0.18,-0.08 0.18,-0.18 0,-0.3 0.25,-0.55 0.55,-0.55l0.37 0c0.1,0 0.18,-0.08 0.18,-0.18 0,-0.1 -0.08,-0.18 -0.18,-0.18l-0.37 0c-0.5,0 -0.91,0.41 -0.91,0.91 0,0.1 0.08,0.18 0.18,0.18zm1.46 1.83c-0.5,0 -0.91,0.41 -0.91,0.91 0,0.1 0.08,0.18 0.18,0.18l1.46 0c0.1,0 0.18,-0.08 0.18,-0.18 0,-0.5 -0.41,-0.91 -0.91,-0.91z"/>
 </g>
</svg>
