<?xml version="1.0" encoding="UTF-8"?>
<!DOCTYPE svg PUBLIC "-//W3C//DTD SVG 1.1//EN" "http://www.w3.org/Graphics/SVG/1.1/DTD/svg11.dtd">
<!-- Creator: CorelDRAW 2020 (64 Bit) -->
<svg xmlns="http://www.w3.org/2000/svg" xml:space="preserve" width="10.16mm" height="10.16mm" version="1.1" style="shape-rendering:geometricPrecision; text-rendering:geometricPrecision; image-rendering:optimizeQuality; fill-rule:evenodd; clip-rule:evenodd"
viewBox="0 0 6.47 6.47"
 xmlns:xlink="http://www.w3.org/1999/xlink"
 xmlns:xodm="http://www.corel.com/coreldraw/odm/2003">
 <defs>
  <style type="text/css">
   <![CDATA[
    .fil0 {fill:#FF9D1F}
   ]]>
  </style>
 </defs>
 <g id="Camada_x0020_1">
  <metadata id="CorelCorpID_0Corel-Layer"/>
  <path class="fil0" d="M6.47 3.23c0,1.79 -1.45,3.23 -3.23,3.23 -1.79,0 -3.23,-1.45 -3.23,-3.23 0,-1.79 1.45,-3.23 3.23,-3.23 1.79,0 3.23,1.45 3.23,3.23zm-4.37 -0.19c0.31,0 0.57,-0.25 0.57,-0.57 0,-0.31 -0.25,-0.57 -0.57,-0.57 -0.31,0 -0.57,0.25 -0.57,0.57 0,0.31 0.25,0.57 0.57,0.57zm2.27 0c0.31,0 0.57,-0.25 0.57,-0.57 0,-0.31 -0.25,-0.57 -0.57,-0.57 -0.31,0 -0.57,0.25 -0.57,0.57 0,0.31 0.25,0.57 0.57,0.57zm0.38 0.38l-3.03 0c-0.1,0 -0.19,0.08 -0.19,0.19 0,0.94 0.76,1.71 1.71,1.71 0.94,0 1.71,-0.76 1.71,-1.71 0,-0.1 -0.08,-0.19 -0.19,-0.19z"/>
 </g>
</svg>
