<?xml version="1.0" encoding="UTF-8" standalone="no"?>
<!-- Creator: CorelDRAW 2020 (64 Bit) -->

<?xml-stylesheet href="COLUNAS.css" type="text/css"?><svg
   xml:space="preserve"
   width="5.9267mm"
   height="5.9267mm"
   version="1.0"
   style="shape-rendering:geometricPrecision; text-rendering:geometricPrecision; image-rendering:optimizeQuality; fill-rule:evenodd; clip-rule:evenodd"
   viewBox="0 0 2.313 2.313"
   id="svg16"
   sodipodi:docname="Colunas.svg"
   inkscape:version="1.2.1 (9c6d41e410, 2022-07-14)"
   xmlns:inkscape="http://www.inkscape.org/namespaces/inkscape"
   xmlns:sodipodi="http://sodipodi.sourceforge.net/DTD/sodipodi-0.dtd"
   xmlns="http://www.w3.org/2000/svg"
   xmlns:svg="http://www.w3.org/2000/svg"><defs
   id="defs20" /><sodipodi:namedview
   id="namedview18"
   pagecolor="#ffffff"
   bordercolor="#000000"
   borderopacity="0.25"
   inkscape:showpageshadow="2"
   inkscape:pageopacity="0.0"
   inkscape:pagecheckerboard="0"
   inkscape:deskcolor="#d1d1d1"
   inkscape:document-units="mm"
   showgrid="false"
   inkscape:zoom="23.437368"
   inkscape:cx="11.17873"
   inkscape:cy="14.634749"
   inkscape:window-width="1366"
   inkscape:window-height="705"
   inkscape:window-x="-8"
   inkscape:window-y="-8"
   inkscape:window-maximized="1"
   inkscape:current-layer="Camada_x0020_1" />
 <g
   id="Camada_x0020_1"
   inkscape:label="Camada 1">
  <metadata
   id="CorelCorpID_0Corel-Layer" />
  <path
   class="fil0"
   d="m 1.1604057,2.3124286 h 1.02 c 0.075,0 0.137,-0.062 0.137,-0.138 V 0.79742858 c 0,-0.076 -0.062,-0.138 -0.137,-0.138 h -1.02 -1.01999999 c -0.075,0 -0.137,0.062 -0.137,0.138 V 2.1744286 c 0,0.076 0.061,0.138 0.137,0.138 z m 1.151,-1.98200002 h 0.005 v 0.005 h -0.005 z M 0.00840571,2.6434286 h -0.005 v -0.005 h 0.005 z m 1.48199999,-1.395 c 0,-0.051 0.018,-0.096 0.053,-0.134 0.036,-0.038 0.083,-0.057 0.141,-0.057 0.071,0 0.129,0.032 0.174,0.095 0.045,0.063 0.067,0.134 0.067,0.212 0,0.115 -0.04,0.23 -0.122,0.347 -0.081,0.117 -0.137,0.175 -0.167,0.175 -0.008,0 -0.026,-0.01 -0.052,-0.029 l -0.013,-0.009 c -0.021,-0.015 -0.033,-0.026 -0.033,-0.034 0,-0.006 0.012,-0.025 0.034,-0.057 0.063,-0.09 0.095,-0.162 0.095,-0.213 0,-0.04 -0.021,-0.074 -0.061,-0.102 -0.04,-0.028 -0.07,-0.058 -0.089,-0.09 -0.019,-0.032 -0.028,-0.066 -0.028,-0.102 z m -0.66099999,0.447 c 0,0.052 -0.018,0.096 -0.055,0.134 -0.037,0.037 -0.083,0.056 -0.14,0.056 -0.072,0 -0.13,-0.032 -0.174,-0.095 -0.045,-0.063 -0.067,-0.134 -0.067,-0.212 0,-0.079 0.022,-0.163 0.066,-0.251 0.044,-0.088 0.089,-0.156 0.134,-0.202 0.046,-0.046 0.075,-0.069 0.088,-0.069 0.008,0 0.024,0.013 0.052,0.03 l 0.013,0.008 c 0.021,0.013 0.031,0.026 0.031,0.034 0,0.006 -0.012,0.025 -0.034,0.057 -0.062,0.091 -0.092,0.162 -0.092,0.215 0,0.04 0.03,0.081 0.089,0.124 0.06,0.043 0.089,0.099 0.089,0.17 z M 1.2374057,0.82542858 c 0.011,0 0.021,0.004 0.029,0.012 0.008,0.008 0.012,0.018 0.012,0.029 v 0.119 h -0.23 v -0.119 c 0,-0.011 0.004,-0.021 0.012,-0.029 0.008,-0.008 0.018,-0.012 0.029,-0.012 h 0.148 z m -0.195,0.24100002 0.006,0.867 c 0,0.006 0.001,0.013 0.004,0.018 l 0.092,0.184 c 10e-4,0.002 0.002,0.004 0.004,0.005 0.008,0.008 0.021,0.008 0.029,0 0.002,-0.002 0.003,-0.003 0.004,-0.005 l 0.092,-0.184 c 0.003,-0.006 0.004,-0.012 0.004,-0.018 v -0.867 h -0.236 z"
   id="path13" />
 </g>
</svg>
