<?xml version="1.0" encoding="UTF-8" standalone="no"?>
<!-- Creator: CorelDRAW 2020 (64 Bit) -->

<?xml-stylesheet href="CONTATOS.css" type="text/css"?><svg
   xml:space="preserve"
   width="5.9268mm"
   height="5.9267mm"
   version="1.0"
   style="shape-rendering:geometricPrecision; text-rendering:geometricPrecision; image-rendering:optimizeQuality; fill-rule:evenodd; clip-rule:evenodd"
   viewBox="0 0 5.319 5.319"
   id="svg209"
   sodipodi:docname="Contatos.svg"
   inkscape:version="1.2.1 (9c6d41e410, 2022-07-14)"
   xmlns:inkscape="http://www.inkscape.org/namespaces/inkscape"
   xmlns:sodipodi="http://sodipodi.sourceforge.net/DTD/sodipodi-0.dtd"
   xmlns="http://www.w3.org/2000/svg"
   xmlns:svg="http://www.w3.org/2000/svg"><defs
   id="defs213" /><sodipodi:namedview
   id="namedview211"
   pagecolor="#ffffff"
   bordercolor="#000000"
   borderopacity="0.25"
   inkscape:showpageshadow="2"
   inkscape:pageopacity="0.0"
   inkscape:pagecheckerboard="0"
   inkscape:deskcolor="#d1d1d1"
   inkscape:document-units="mm"
   showgrid="false"
   inkscape:zoom="23.437368"
   inkscape:cx="11.221397"
   inkscape:cy="21.461454"
   inkscape:window-width="1366"
   inkscape:window-height="705"
   inkscape:window-x="-8"
   inkscape:window-y="-8"
   inkscape:window-maximized="1"
   inkscape:current-layer="Camada_x0020_1" />
 <g
   id="Camada_x0020_1"
   inkscape:label="Camada 1">
  <metadata
   id="CorelCorpID_0Corel-Layer" />
  <path
   class="fil0"
   d="m 0.30813143,1.5198572 h 1.32399997 0.86 1.772 0.767 c 0.164,0 0.298,0.137 0.298,0.304 v 0.353 l -2.267,1.413 c -0.101,0.066 -0.221,0.16 -0.382,0.16 -0.191,0 -0.279,-0.083 -0.406,-0.166 l -0.028,-0.018 -0.004,-0.003 -1.69399997,-1.056 -0.001,-10e-4 v 0 l -0.536,-0.334 v -0.348 c 0,-0.167 0.134,-0.304 0.298,-0.304 z M 5.3171314,0.75985717 h 0.011 v 0.011 h -0.011 z M 0.02113143,6.0788572 h -0.011 v -0.011 h 0.011 z m 5.30699997,-1.064 c 0,0.167 -0.134,0.304 -0.298,0.304 H 0.30713143 c -0.164,0 -0.298,-0.137 -0.298,-0.304 v -2.179 c 0.114,0.087 0.242,0.163 0.356,0.233 l 1.39299997,0.86 c 0.113,0.069 0.223,0.145 0.334,0.217 0.203,0.132 0.319,0.219 0.586,0.219 0.234,0 0.379,-0.094 0.562,-0.213 0.111,-0.072 0.221,-0.147 0.334,-0.217 l 1.393,-0.86 0.36,-0.236 v 2.176 z"
   id="path206" />
 </g>
</svg>
