<?xml version="1.0" encoding="UTF-8" standalone="no"?>
<!-- Creator: CorelDRAW 2020 (64 Bit) -->

<?xml-stylesheet href="EQUIPE.css" type="text/css"?><svg
   xml:space="preserve"
   width="5.9267mm"
   height="5.9267mm"
   version="1.0"
   style="shape-rendering:geometricPrecision; text-rendering:geometricPrecision; image-rendering:optimizeQuality; fill-rule:evenodd; clip-rule:evenodd"
   viewBox="0 0 15.586 15.586"
   id="svg235"
   sodipodi:docname="Equipe.svg"
   inkscape:version="1.2.1 (9c6d41e410, 2022-07-14)"
   xmlns:inkscape="http://www.inkscape.org/namespaces/inkscape"
   xmlns:sodipodi="http://sodipodi.sourceforge.net/DTD/sodipodi-0.dtd"
   xmlns="http://www.w3.org/2000/svg"
   xmlns:svg="http://www.w3.org/2000/svg"><defs
   id="defs239" /><sodipodi:namedview
   id="namedview237"
   pagecolor="#ffffff"
   bordercolor="#000000"
   borderopacity="0.25"
   inkscape:showpageshadow="2"
   inkscape:pageopacity="0.0"
   inkscape:pagecheckerboard="0"
   inkscape:deskcolor="#d1d1d1"
   inkscape:document-units="mm"
   showgrid="false"
   inkscape:zoom="23.437368"
   inkscape:cx="11.17873"
   inkscape:cy="14.634749"
   inkscape:window-width="1366"
   inkscape:window-height="705"
   inkscape:window-x="-8"
   inkscape:window-y="-8"
   inkscape:window-maximized="1"
   inkscape:current-layer="Camada_x0020_1" />
 <g
   id="Camada_x0020_1"
   inkscape:label="Camada 1">
  <metadata
   id="CorelCorpID_0Corel-Layer" />
  <path
   class="fil0"
   d="m 0.06368762,18.317261 h -0.034 v -0.034 h 0.034 z M 5.3686876,6.7802611 c 0,0.416 0.126,0.882 0.33,1.222 0.355,0.596 0.667,0.719 0.738,0.816 -0.232,0.111 -0.166,0.057 -0.442,0.221 -0.429,0.255 -0.768,0.548 -1.068,0.948 -0.645,0.8609999 -0.713,1.5149999 -0.713,2.5629999 h 0.008 v 3.017 h 7.2050004 v -3.017 h 0.004 c 0,-1.035 -0.065,-1.695 -0.701,-2.547 -0.33,-0.4419999 -0.7880004,-0.8289999 -1.2800004,-1.0799999 -0.091,-0.045 -0.16,-0.065 -0.241,-0.104 0.058,-0.079 0.225,-0.141 0.487,-0.463 0.037,-0.045 0.06,-0.062 0.095,-0.106 0.6060004,-0.746 0.6460004,-1.981 0.053,-2.819 -0.034,-0.048 -0.081,-0.114 -0.124,-0.163 -0.188,-0.22 -0.22,-0.256 -0.478,-0.444 -0.886,-0.647 -2.168,-0.601 -2.984,0.113 l -0.443,0.478 c -0.271,0.374 -0.445,0.903 -0.445,1.366 z M 15.614688,12.400261 c -0.012,-1.171 -0.18,-1.804 -1.074,-2.6849999 -0.239,-0.235 -0.519,-0.375 -0.802,-0.523 0.067,-0.1 0.264,-0.198 0.489,-0.547 0.85,-1.325 0.102,-2.953 -1.217,-3.324 -0.699,-0.196 -1.245,-0.073 -1.755,0.195 0.399,0.826 0.327,1.951 -0.105,2.795 -0.056,0.109 -0.156,0.233 -0.184,0.335 0.087,0.058 0.117,0.072 0.195,0.151 0.167,0.166 0.321,0.266 0.528,0.538 0.101,0.133 0.193,0.261 0.288,0.402 0.108,0.16 0.17,0.2819999 0.26,0.4589999 0.335,0.661 0.458,1.326 0.462,2.307 v 0.047 3.017 h 2.916 v -3.017 -0.059 -0.091 z m -0.033,-9.6699999 h 0.034 v 0.034 h -0.034 z M 0.02868762,12.400261 v -0.191 c 0.002,-0.323 0.015,-0.575 0.092,-0.887 0.254,-1.031 0.90299998,-1.6649999 1.78399998,-2.1299999 -0.063,-0.095 -0.288,-0.224 -0.5,-0.565 -0.132,-0.212 -0.26,-0.475 -0.31,-0.755 -0.32999998,-1.866 1.55,-3.273 3.292,-2.356 -0.196,0.406 -0.323,1.098 -0.236,1.699 0.137,0.946 0.478,1.254 0.525,1.431 -0.098,0.065 -0.122,0.078 -0.209,0.165 -0.075,0.076 -0.113,0.089 -0.189,0.157 -0.08,0.072 -0.093,0.108 -0.159,0.186 -0.24,0.283 -0.213,0.225 -0.465,0.6 -0.108,0.16 -0.163,0.2729999 -0.248,0.4419999 -0.335,0.661 -0.458,1.326 -0.462,2.307 v 0.047 3.017 H 0.02868762 v -3.017 z"
   id="path232" />
 </g>
</svg>
