<?xml version="1.0" encoding="UTF-8" standalone="no"?>
<!-- Creator: CorelDRAW 2020 (64 Bit) -->

<?xml-stylesheet href="MIDIAS.css" type="text/css"?><svg
   xml:space="preserve"
   width="5.9267mm"
   height="5.9267mm"
   version="1.0"
   style="shape-rendering:geometricPrecision; text-rendering:geometricPrecision; image-rendering:optimizeQuality; fill-rule:evenodd; clip-rule:evenodd"
   viewBox="0 0 18.705 18.705"
   id="svg261"
   sodipodi:docname="Mídias.svg"
   inkscape:version="1.2.1 (9c6d41e410, 2022-07-14)"
   xmlns:inkscape="http://www.inkscape.org/namespaces/inkscape"
   xmlns:sodipodi="http://sodipodi.sourceforge.net/DTD/sodipodi-0.dtd"
   xmlns="http://www.w3.org/2000/svg"
   xmlns:svg="http://www.w3.org/2000/svg"><defs
   id="defs265" /><sodipodi:namedview
   id="namedview263"
   pagecolor="#ffffff"
   bordercolor="#000000"
   borderopacity="0.25"
   inkscape:showpageshadow="2"
   inkscape:pageopacity="0.0"
   inkscape:pagecheckerboard="0"
   inkscape:deskcolor="#d1d1d1"
   inkscape:document-units="mm"
   showgrid="false"
   inkscape:zoom="23.437368"
   inkscape:cx="11.17873"
   inkscape:cy="14.634749"
   inkscape:window-width="1366"
   inkscape:window-height="705"
   inkscape:window-x="-8"
   inkscape:window-y="-8"
   inkscape:window-maximized="1"
   inkscape:current-layer="Camada_x0020_1" />
 <g
   id="Camada_x0020_1"
   inkscape:label="Camada 1">
  <metadata
   id="CorelCorpID_0Corel-Layer" />
  <path
   class="fil0"
   d="m 8.361,11.396714 c -0.542,-0.415 -0.893,-1.069 -0.893,-1.7999997 v -3.348 c -0.107,-0.025 -0.22,-0.038 -0.335,-0.038 H 1.79 c -0.826,0 -1.495,0.667 -1.495,1.491 v 5.3269997 c 0,0.823 0.669,1.49 1.495,1.49 h 2.935 v 1.371 l 1.523,-1.176 v -1.84 c 0,-0.478 0.228,-0.904 0.581,-1.174 -0.045,0.017 -0.093,0.027 -0.144,0.027 H 5.537 l -0.163,0.978 c -0.032,0.195 -0.2,0.333 -0.392,0.333 -0.022,0 -0.043,-0.002 -0.065,-0.005 -0.217,-0.035 -0.364,-0.24 -0.328,-0.457 l 0.141,-0.848 H 3.77 l -0.162,0.978 c -0.032,0.195 -0.201,0.333 -0.392,0.333 -0.021,0 -0.043,-0.002 -0.065,-0.005 -0.217,-0.035 -0.364,-0.24 -0.328,-0.457 l 0.14,-0.848 H 2.179 c -0.219,0 -0.398,-0.179 -0.398,-0.398 0,-0.22 0.179,-0.398 0.398,-0.398 H 3.095 L 3.255,9.9627143 H 2.179 c -0.219,0 -0.398,-0.178 -0.398,-0.397 0,-0.22 0.179,-0.398 0.398,-0.398 h 1.207 l 0.192,-1.161 c 0.036,-0.217 0.24,-0.364 0.457,-0.327 0.217,0.036 0.364,0.24 0.328,0.457 l -0.171,1.031 h 0.96 l 0.192,-1.161 c 0.035,-0.217 0.24,-0.364 0.457,-0.327 0.217,0.036 0.364,0.24 0.328,0.457 l -0.17,1.031 h 0.725 c 0.22,0 0.398,0.178 0.398,0.398 0,0.22 -0.178,0.397 -0.398,0.397 H 5.827 l -0.16,0.9709997 h 1.017 c 0.22,0 0.398,0.178 0.398,0.398 0,0.106 -0.041,0.202 -0.108,0.273 0.221,-0.131 0.479,-0.207 0.755,-0.207 H 8.36 Z m 3.16,0.421 H 7.729 c -0.586,0 -1.061,0.474 -1.061,1.058 v 3.78 c 0,0.585 0.475,1.058 1.061,1.058 h 2.083 v 0.973 l 1.261,-0.973 h 0.448 c 0.586,0 1.061,-0.473 1.061,-1.058 v -3.78 c 0,-0.584 -0.474,-1.058 -1.061,-1.058 z m -1.834,-0.325 h 0.002 c 0.016,0 0.032,0.001 0.048,0.001 h 0.166 3.386 v 1.723 l 2.252,-1.723 h 0.972 c 1.047,0 1.896,-0.846 1.896,-1.8909997 v -5.913 c 0,-1.044 -0.849,-1.89 -1.896,-1.89 H 9.737 c -1.047,0 -1.896,0.846 -1.896,1.89 v 3.368 2.539 c 0,1.0249997 0.825,1.8689997 1.846,1.8949997 z M 18.663,0.89071432 h 0.04 v 0.04 h -0.04 z M 0.039,19.595714 h -0.04 v -0.04 h 0.04 z m 11.624,-10.8729997 0.196,0.158 c 0.31,0.251 0.696,0.387 1.095,0.387 h 2.775 c 0.263,0 0.475,-0.219 0.462,-0.484 -0.013,-0.249 0,-2.516 0,-2.772 0,-0.256 -0.208,-0.463 -0.463,-0.463 l -1.882,-0.006 0.231,-0.545 c 0.239,-0.567 0.201,-1.214 -0.105,-1.747 -0.086,-0.151 -0.28,-0.201 -0.429,-0.109 -0.091,0.055 -0.146,0.154 -0.146,0.262 0,0.489 -0.178,0.962 -0.502,1.329 l -1.2,1.357 h -0.067 v -0.329 c 0,-0.085 -0.068,-0.152 -0.152,-0.152 h -1.267 c -0.083,0 -0.151,0.068 -0.151,0.152 v 3.228 c 0,0.084 0.068,0.151 0.151,0.151 h 1.267 v 0 c 0.084,0 0.152,-0.068 0.152,-0.151 v -0.266 h 0.035 z M 9.624,16.050714 c 0.913,-0.484 1.385,-0.895 1.385,-1.533 0,-0.88 -1.077,-1.1 -1.385,-0.44 -0.352,-0.682 -1.385,-0.44 -1.385,0.44 0,0.638 0.472,1.049 1.385,1.533 z M 4.061,9.9627143 h 0.96 L 4.86,10.932714 H 3.9 Z"
   id="path258" />
 </g>
</svg>
