<?xml version="1.0" encoding="UTF-8" standalone="no"?>
<!-- Creator: CorelDRAW 2020 (64 Bit) -->

<?xml-stylesheet href="PODCAST.css" type="text/css"?><svg
   xml:space="preserve"
   width="5.9267mm"
   height="5.9267mm"
   version="1.0"
   style="shape-rendering:geometricPrecision; text-rendering:geometricPrecision; image-rendering:optimizeQuality; fill-rule:evenodd; clip-rule:evenodd"
   viewBox="0 0 3.314 3.314"
   id="svg307"
   sodipodi:docname="Podcasts.svg"
   inkscape:version="1.2.1 (9c6d41e410, 2022-07-14)"
   xmlns:inkscape="http://www.inkscape.org/namespaces/inkscape"
   xmlns:sodipodi="http://sodipodi.sourceforge.net/DTD/sodipodi-0.dtd"
   xmlns="http://www.w3.org/2000/svg"
   xmlns:svg="http://www.w3.org/2000/svg"><defs
   id="defs311" /><sodipodi:namedview
   id="namedview309"
   pagecolor="#ffffff"
   bordercolor="#000000"
   borderopacity="0.25"
   inkscape:showpageshadow="2"
   inkscape:pageopacity="0.0"
   inkscape:pagecheckerboard="0"
   inkscape:deskcolor="#d1d1d1"
   inkscape:document-units="mm"
   showgrid="false"
   inkscape:zoom="23.437368"
   inkscape:cx="11.17873"
   inkscape:cy="18.048102"
   inkscape:window-width="1366"
   inkscape:window-height="705"
   inkscape:window-x="-8"
   inkscape:window-y="-8"
   inkscape:window-maximized="1"
   inkscape:current-layer="Camada_x0020_1" />
 <g
   id="Camada_x0020_1"
   inkscape:label="Camada 1">
  <metadata
   id="CorelCorpID_0Corel-Layer" />
  <path
   class="fil0"
   d="m 1.0703124,1.0585581 v 0.599 c 0,0.088 0.023,0.172 0.05,0.233 0.057,0.127 0.155,0.235 0.281,0.296 0.164,0.08 0.357,0.079 0.522,0.002 0.061,-0.028 0.12,-0.075 0.167,-0.122 0.023,-0.022 0.046,-0.053 0.065,-0.08 0.061,-0.088 0.103,-0.21 0.103,-0.33 v -0.599 c 0,-0.315 -0.271,-0.588 -0.566,-0.588 -0.191,0 -0.324,0.05 -0.453,0.179 -0.087,0.086 -0.168,0.238 -0.168,0.409 z m 2.244,-0.825 h 0.007 v 0.007 h -0.007 z m -3.30000002,3.314 h -0.007 v -0.007 h 0.007 z m 0.585,-1.901 c 0,0.255 0.077,0.48 0.235,0.675 0.01,0.013 0.017,0.022 0.027,0.034 l 0.043,0.046 c 0.12300002,0.123 0.26900002,0.213 0.43600002,0.268 0.046,0.015 0.147,0.042 0.202,0.042 v 0.361 h -0.227 c -0.17,0 -0.157,0.239 -0.017,0.239 h 0.732 c 0.045,0 0.082,-0.032 0.098,-0.069 0.039,-0.093 -0.032,-0.17 -0.114,-0.17 h -0.227 v -0.361 c 0.17,0 0.467,-0.142 0.59,-0.265 0.053,-0.053 0.071,-0.065 0.121,-0.128 0.05,-0.063 0.108,-0.152 0.14,-0.227 0.062,-0.146 0.093,-0.261 0.093,-0.445 0,-0.139 -0.232,-0.158 -0.239,0.005 -0.004,0.081 -0.007,0.134 -0.024,0.203 -0.015,0.06 -0.037,0.115 -0.061,0.167 l -0.043,0.074 c -0.046,0.07 -0.055,0.072 -0.099,0.128 -0.038,0.048 -0.142,0.119 -0.197,0.152 -0.283,0.168 -0.693,0.126 -0.937,-0.091 -0.011,-0.01 -0.016,-0.018 -0.028,-0.028 -0.06,-0.05 -0.11700002,-0.121 -0.15400002,-0.19 -0.074,-0.139 -0.108,-0.242 -0.111,-0.411 -0.003,-0.171 -0.239,-0.15 -0.239,-0.011 z"
   id="path304" />
 </g>
</svg>
