<?xml version="1.0" encoding="UTF-8" standalone="no"?>
<!-- Creator: CorelDRAW 2020 (64 Bit) -->

<?xml-stylesheet href="RADIO.css" type="text/css"?><svg
   xml:space="preserve"
   width="5.9267mm"
   height="5.9267mm"
   version="1.0"
   style="shape-rendering:geometricPrecision; text-rendering:geometricPrecision; image-rendering:optimizeQuality; fill-rule:evenodd; clip-rule:evenodd"
   viewBox="0 0 6.087 6.087"
   id="svg333"
   sodipodi:docname="Rádio.svg"
   inkscape:version="1.2.1 (9c6d41e410, 2022-07-14)"
   xmlns:inkscape="http://www.inkscape.org/namespaces/inkscape"
   xmlns:sodipodi="http://sodipodi.sourceforge.net/DTD/sodipodi-0.dtd"
   xmlns="http://www.w3.org/2000/svg"
   xmlns:svg="http://www.w3.org/2000/svg"><defs
   id="defs337" /><sodipodi:namedview
   id="namedview335"
   pagecolor="#ffffff"
   bordercolor="#000000"
   borderopacity="0.25"
   inkscape:showpageshadow="2"
   inkscape:pageopacity="0.0"
   inkscape:pagecheckerboard="0"
   inkscape:deskcolor="#d1d1d1"
   inkscape:document-units="mm"
   showgrid="false"
   inkscape:zoom="23.437368"
   inkscape:cx="11.17873"
   inkscape:cy="21.461454"
   inkscape:window-width="1366"
   inkscape:window-height="705"
   inkscape:window-x="-8"
   inkscape:window-y="-8"
   inkscape:window-maximized="1"
   inkscape:current-layer="Camada_x0020_1" />
 <g
   id="Camada_x0020_1"
   inkscape:label="Camada 1">
  <metadata
   id="CorelCorpID_0Corel-Layer" />
  <path
   class="fil0"
   d="m 3.0555943,6.0991658 h 2.684 c 0.198,0 0.36,-0.162 0.36,-0.362 v -2.24 0 -0.003 -0.488 -0.528 -0.17 -0.003 -0.191 c 0,-0.2 -0.163,-0.362 -0.36,-0.362 h -2.684 -2.68400001 c -0.197,0 -0.36,0.162 -0.36,0.362 v 0.134 0.003 0.227 0.528 0.431 0.003 0 2.297 c 0,0.199 0.161,0.362 0.36,0.362 z m 3.031,-5.21800005 h 0.013 v 0.013 h -0.013 z M 0.02559429,6.9681658 h -0.013 v -0.013 h 0.013 z m 0.23,-4.491 H 4.4055943 v 0.528 H 0.25559429 Z m 4.39300001,0 h 1.209 v 0.528 h -1.209 z m -1.38,1.045 h 2.173 c 0.113,0 0.205,0.093 0.205,0.206 v 0 c 0,0.113 -0.092,0.206 -0.205,0.206 h -2.173 c -0.113,0 -0.205,-0.093 -0.205,-0.206 v 0 c 0,-0.113 0.092,-0.206 0.205,-0.206 z m 0,0.824 h 2.173 c 0.113,0 0.205,0.093 0.205,0.206 v 0 c 0,0.113 -0.092,0.206 -0.205,0.206 h -2.173 c -0.113,0 -0.205,-0.093 -0.205,-0.206 v 0 c 0,-0.113 0.092,-0.206 0.205,-0.206 z m 0,0.824 h 2.173 c 0.113,0 0.205,0.093 0.205,0.206 v 0 c 0,0.113 -0.092,0.206 -0.205,0.206 h -2.173 c -0.113,0 -0.205,-0.093 -0.205,-0.206 v 0 c 0,-0.113 0.092,-0.206 0.205,-0.206 z m -1.604,-1.647 c 0.542,0 0.982,0.441 0.982,0.985 0,0.544 -0.439,0.985 -0.982,0.985 -0.542,0 -0.98200001,-0.441 -0.98200001,-0.985 0,-0.544 0.43900001,-0.985 0.98200001,-0.985 z"
   id="path330" />
 </g>
</svg>
