<?xml version="1.0" encoding="UTF-8"?>
<!DOCTYPE svg PUBLIC "-//W3C//DTD SVG 1.1//EN" "http://www.w3.org/Graphics/SVG/1.1/DTD/svg11.dtd">
<!-- Creator: CorelDRAW 2020 (64 Bit) -->
<svg xmlns="http://www.w3.org/2000/svg" xml:space="preserve" width="21.6752mm" height="28.3266mm" version="1.1" style="shape-rendering:geometricPrecision; text-rendering:geometricPrecision; image-rendering:optimizeQuality; fill-rule:evenodd; clip-rule:evenodd"
viewBox="0 0 29.03 37.94"
 xmlns:xlink="http://www.w3.org/1999/xlink"
 xmlns:xodm="http://www.corel.com/coreldraw/odm/2003">
 <defs>
  <style type="text/css">
   <![CDATA[
    .fil0 {fill:black}
   ]]>
  </style>
 </defs>
 <g id="Camada_x0020_1">
  <metadata id="CorelCorpID_0Corel-Layer"/>
  <path class="fil0" d="M14.52 0c8.01,0 14.51,8.49 14.51,18.97 0,10.48 -6.5,18.97 -14.51,18.97 -8.02,0 -14.52,-8.49 -14.52,-18.97 0,-10.48 6.5,-18.97 14.52,-18.97zm0 2.79c6.43,0 11.63,7.25 11.63,16.18 0,3.88 -0.98,7.44 -2.62,10.22 -0.41,-1.01 -1.39,-1.72 -2.55,-1.72 -1.52,0 -2.74,1.23 -2.74,2.74 0,1.32 0.94,2.43 2.19,2.69 -1.73,1.43 -3.75,2.24 -5.91,2.24 -6.43,0 -11.64,-7.24 -11.64,-16.18 0,-4.32 1.22,-8.24 3.2,-11.14 0.53,2 2.34,3.47 4.51,3.47 2.57,0 4.66,-2.09 4.66,-4.66 0,-1.55 -0.75,-2.92 -1.92,-3.77 0.39,-0.05 0.79,-0.08 1.19,-0.08zm4.99 16.67c0.01,0.19 0.01,0.38 0.01,0.57 0,4.43 -2.24,8.03 -5.01,8.03 -2.77,0 -5.01,-3.59 -5.01,-8.03 0,-0.19 0.01,-0.38 0.01,-0.57 0.18,3.62 2.35,6.47 5,6.47 2.65,0 4.81,-2.86 4.99,-6.47z"/>
 </g>
</svg>
