<?xml version="1.0" encoding="UTF-8"?>
<!DOCTYPE svg PUBLIC "-//W3C//DTD SVG 1.1//EN" "http://www.w3.org/Graphics/SVG/1.1/DTD/svg11.dtd">
<!-- Creator: CorelDRAW 2020 (64 Bit) -->
<svg xmlns="http://www.w3.org/2000/svg" xml:space="preserve" width="28.3265mm" height="27.1708mm" version="1.1" style="shape-rendering:geometricPrecision; text-rendering:geometricPrecision; image-rendering:optimizeQuality; fill-rule:evenodd; clip-rule:evenodd"
viewBox="0 0 58.78 56.38"
 xmlns:xlink="http://www.w3.org/1999/xlink"
 xmlns:xodm="http://www.corel.com/coreldraw/odm/2003">
 <defs>
  <style type="text/css">
   <![CDATA[
    .fil0 {fill:black;}
   ]]>
  </style>
 </defs>
 <g id="Camada_x0020_1">
  <metadata id="CorelCorpID_0Corel-Layer"/>
  <path class="fil0" d="M32.65 0c2.1,0 4.06,0.4 5.89,1.2 1.83,0.8 3.44,1.88 4.84,3.23 1.4,1.35 2.5,2.95 3.3,4.8 0.8,1.85 1.2,3.83 1.2,5.93 0,1.75 -0.26,3.39 -0.79,4.91 -0.52,1.53 -1.26,2.94 -2.21,4.24 -1.3,1.75 -2.94,3.19 -4.92,4.31 -1.97,1.12 -4.14,1.74 -6.49,1.84l0 0.07c0,1.35 -0.49,2.53 -1.46,3.53 -0.97,1 -2.19,1.5 -3.64,1.5 -1.4,0 -2.58,-0.5 -3.53,-1.5 -0.95,-1 -1.43,-2.18 -1.43,-3.53l0 -5.1 0 -0.53c0,-1.3 0.5,-2.38 1.5,-3.23 1,-0.85 2.15,-1.33 3.45,-1.43l4.95 0c1.25,-0.15 2.3,-0.71 3.15,-1.69 0.85,-0.98 1.28,-2.11 1.28,-3.41 0,-1.45 -0.5,-2.68 -1.5,-3.68 -1,-1 -2.2,-1.5 -3.6,-1.5 -1.45,0 -2.68,0.5 -3.68,1.5 -1,1 -1.5,2.23 -1.5,3.68 0,1.4 -0.5,2.59 -1.5,3.56 -1,0.98 -2.2,1.46 -3.6,1.46 -1.3,0 -2.43,-0.41 -3.38,-1.24 -0.95,-0.83 -1.48,-1.89 -1.58,-3.19 0,-2 0.36,-3.95 1.09,-5.85 0.73,-1.9 1.75,-3.59 3.08,-5.06 1.32,-1.48 2.93,-2.65 4.8,-3.53 1.88,-0.87 3.96,-1.31 6.27,-1.31zm-29.83 31.24c0.95,-0.97 2.04,-1.7 3.24,-2.18 1.2,-0.48 2.43,-0.74 3.69,-0.77 1.26,-0.03 2.5,0.19 3.72,0.66 1.22,0.47 2.32,1.19 3.28,2.14 0.81,0.8 1.45,1.66 1.91,2.6 0.46,0.94 0.78,1.92 0.95,2.95 0.22,1.4 0.13,2.81 -0.24,4.23 -0.38,1.42 -1.08,2.7 -2.1,3.84l0.03 0.03c0.63,0.61 0.95,1.38 0.96,2.28 0.02,0.91 -0.3,1.7 -0.96,2.37 -0.64,0.65 -1.4,0.96 -2.3,0.95 -0.89,-0.01 -1.66,-0.33 -2.28,-0.95l-2.36 -2.32 -0.24 -0.24c-0.6,-0.59 -0.87,-1.31 -0.81,-2.16 0.06,-0.85 0.37,-1.6 0.91,-2.24l2.25 -2.29c0.5,-0.65 0.72,-1.39 0.65,-2.23 -0.06,-0.83 -0.4,-1.55 -1,-2.14 -0.67,-0.66 -1.47,-0.99 -2.38,-0.98 -0.92,0.01 -1.7,0.34 -2.33,0.98 -0.66,0.67 -0.99,1.47 -0.98,2.38 0.01,0.92 0.35,1.71 1.02,2.37 0.65,0.64 0.97,1.41 0.97,2.32 -0,0.9 -0.33,1.68 -0.96,2.33 -0.59,0.6 -1.3,0.93 -2.11,1 -0.81,0.06 -1.54,-0.18 -2.19,-0.72 -0.93,-0.91 -1.66,-1.97 -2.21,-3.17 -0.55,-1.2 -0.86,-2.45 -0.94,-3.73 -0.08,-1.28 0.11,-2.56 0.56,-3.82 0.45,-1.26 1.2,-2.43 2.25,-3.49zm20.14 19.22c0.64,0.63 0.97,1.4 0.98,2.3 0.01,0.89 -0.31,1.67 -0.95,2.31 -0.61,0.62 -1.37,0.93 -2.25,0.93 -0.88,-0 -1.65,-0.33 -2.3,-0.96 -0.62,-0.61 -0.95,-1.36 -0.96,-2.25 -0.02,-0.88 0.28,-1.64 0.89,-2.26 0.64,-0.65 1.4,-0.97 2.3,-0.98 0.9,-0.01 1.66,0.3 2.28,0.91zm32.29 -16.85c1.04,0.87 1.85,1.9 2.42,3.06 0.57,1.16 0.93,2.37 1.06,3.62 0.13,1.25 0.01,2.51 -0.36,3.76 -0.37,1.25 -1,2.4 -1.88,3.44 -0.73,0.87 -1.55,1.58 -2.44,2.11 -0.89,0.54 -1.85,0.93 -2.87,1.18 -1.38,0.33 -2.79,0.35 -4.24,0.09 -1.45,-0.26 -2.78,-0.86 -3.99,-1.8l-0.03 0.04c-0.56,0.66 -1.3,1.05 -2.2,1.14 -0.9,0.09 -1.72,-0.17 -2.43,-0.77 -0.69,-0.58 -1.07,-1.32 -1.12,-2.22 -0.05,-0.89 0.2,-1.68 0.76,-2.35l2.13 -2.53 0.22 -0.26c0.54,-0.65 1.24,-0.97 2.09,-0.98 0.85,-0 1.62,0.24 2.31,0.73l2.46 2.07c0.68,0.45 1.44,0.6 2.27,0.48 0.83,-0.13 1.52,-0.52 2.06,-1.16 0.6,-0.72 0.87,-1.54 0.79,-2.45 -0.08,-0.91 -0.47,-1.67 -1.16,-2.25 -0.72,-0.6 -1.54,-0.87 -2.45,-0.79 -0.91,0.08 -1.68,0.48 -2.28,1.2 -0.58,0.69 -1.33,1.08 -2.23,1.14 -0.9,0.06 -1.71,-0.19 -2.4,-0.78 -0.64,-0.54 -1.03,-1.22 -1.16,-2.02 -0.13,-0.81 0.05,-1.55 0.55,-2.24 0.83,-0.99 1.83,-1.81 2.98,-2.45 1.15,-0.64 2.37,-1.05 3.64,-1.23 1.27,-0.18 2.56,-0.09 3.86,0.25 1.29,0.35 2.52,1.01 3.66,1.96zm-17.58 21.6c-0.58,0.69 -1.32,1.08 -2.21,1.16 -0.89,0.07 -1.69,-0.18 -2.38,-0.76 -0.67,-0.56 -1.04,-1.29 -1.1,-2.17 -0.06,-0.88 0.2,-1.67 0.78,-2.37 0.56,-0.67 1.28,-1.05 2.16,-1.14 0.88,-0.09 1.66,0.15 2.32,0.71 0.69,0.58 1.08,1.32 1.16,2.21 0.08,0.89 -0.17,1.68 -0.73,2.34zm-4.34 -12.29c0,1.4 -0.49,2.59 -1.46,3.56 -0.98,0.98 -2.16,1.46 -3.56,1.46 -1.35,0 -2.5,-0.49 -3.45,-1.46 -0.95,-0.98 -1.43,-2.16 -1.43,-3.56 0,-1.35 0.47,-2.51 1.43,-3.49 0.95,-0.97 2.1,-1.46 3.45,-1.46 1.4,0 2.59,0.49 3.56,1.46 0.98,0.98 1.46,2.14 1.46,3.49z"/>
 </g>
</svg>
