<?xml version="1.0" encoding="UTF-8"?>
<!DOCTYPE svg PUBLIC "-//W3C//DTD SVG 1.1//EN" "http://www.w3.org/Graphics/SVG/1.1/DTD/svg11.dtd">
<!-- Creator: CorelDRAW 2020 (64 Bit) -->
<svg xmlns="http://www.w3.org/2000/svg" xml:space="preserve" width="24.6391mm" height="28.1212mm" version="1.1" style="shape-rendering:geometricPrecision; text-rendering:geometricPrecision; image-rendering:optimizeQuality; fill-rule:evenodd; clip-rule:evenodd"
viewBox="0 0 37.46 42.76"
 xmlns:xlink="http://www.w3.org/1999/xlink"
 xmlns:xodm="http://www.corel.com/coreldraw/odm/2003">
 <defs>
  <style type="text/css">
   <![CDATA[
    .fil0 {fill:black}
   ]]>
  </style>
 </defs>
 <g id="Camada_x0020_1">
  <metadata id="CorelCorpID_0Corel-Layer"/>
  <path class="fil0" d="M27.55 17.55c3.69,-0.23 0.6,4.48 6.24,4.13 1.67,-0.19 4.06,-0.08 3.61,-2.61 -1.05,-5.64 -2.25,-0.48 -4.1,-4.6 -1.32,-1.91 -3.68,-2.08 -5.88,-1.83 0.5,-1.47 2.46,-6.41 2.9,-7.79 -0.86,-0.44 -3.59,-1.33 -4.69,-1.38 -1.7,2.93 -5.46,11.85 -6.78,15.05 -0.75,2.22 1.1,2.12 2.94,2.58 1.18,0.3 1.62,0.42 2.21,-0.46 0.83,-1.4 1.07,-3.02 3.55,-3.09zm-8.49 10.2c-0.09,-1.36 2.31,-3.32 1.05,-4.24 -0.35,-0.26 -3.07,-1.68 -4.05,-1.61 -0.3,0.46 -1.03,1.79 -1.52,2.23 -1.06,-0.17 -2.12,-1.28 -3.49,-1.37 -0.65,0.41 -2.58,2.75 -2.67,3.52 0.69,0.83 2.52,1.25 3.33,2.1 -0.42,1.66 -4.06,4.97 -4.67,6.64 0.36,0.72 3.08,2.42 4.01,2.66 1.89,-1.09 3.77,-4.89 4.95,-5.44 1.46,4.07 -1.11,5.47 -2.96,6.98 0.15,0.86 1.68,3.13 2.37,3.56 5.55,-1.77 8.99,-11.22 3.64,-15.01zm4.72 -3.14c0.69,0.33 1.97,0.73 2.87,0.52 0.15,-0.87 0.34,-2.05 0.06,-2.99 -0.35,-0.19 -2.01,-0.69 -2.51,-0.52 -0.73,0.25 -0.52,2.15 -0.43,2.98zm3.33 -1.19c0.07,0.86 0.95,2.51 1.41,3.03 0.97,0.01 2.14,-0.6 2.55,-1.21 -0.1,-0.51 -0.99,-2.06 -1.3,-2.32 -0.67,-0.57 -2,0.19 -2.67,0.5zm-5.52 5.69c0.4,0.53 4.61,3.97 5.01,3.97 0.41,-0.01 3.22,-3.39 2.63,-4.07 -0.28,-0.62 -0.59,-0.79 -1.36,-1.37 -1.3,-0.96 -3.9,-2.64 -5.48,-2.56 -1.52,2.17 -2.48,2.53 -0.8,4.03zm-8.85 -21.72c-0.08,-1.36 -0.04,-0.48 0.24,-0.8l2.17 0.04c0.27,-0.86 0.24,-2.01 0.28,-2.99 -0.13,-1.77 -1.62,-0.87 -3.15,-1.28 -0.39,-0.58 -0.3,-1.49 -0.63,-2.19 -0.99,-0.37 -4.56,-0.04 -5.42,0.47 -0.07,0.76 0.14,0.75 -0.15,1.43 -1.04,0.09 -2.61,-0.07 -3.7,-0.15 -2.06,-0.14 -2.34,-0.39 -2.36,1.72 -0,0.72 -0.15,1.59 0.2,2.19 0.87,0.36 2.78,0.28 3.84,0.33 1.96,0.09 2.96,-0.48 2.78,1.58 -0.72,-0.01 -1.66,0.02 -2.44,0.09 -1.37,0.12 -1.1,0.6 -1.12,1.85 0.05,1.87 -0.07,2.24 1.91,2.16 0.66,-0.03 1.52,-0.11 2.05,0.03 0.24,0.57 0.18,0.9 0.14,1.63 -0.88,0.1 -2.12,0.4 -2.98,0.7 -5.2,1.82 -4.86,8.15 1.05,8.71 3.35,0.15 6,-1.38 7.96,-4.75 0.35,-0.29 2.23,0.19 2.71,0.17 0.79,-0.03 2.67,-4.47 0.54,-4.85 -1.11,-0.2 -2.29,-0.1 -3.39,-0.28l-0.07 -1.49c1.78,-0.79 2.63,0.97 2.66,-2.03 -0.01,-0.7 0.06,-1.35 -0.27,-1.94 -0.84,-0.47 -2.06,0.02 -2.86,-0.35zm-6.24 11.5c-1.34,0.03 -1.24,-1.66 1.27,-1.92 0,0.87 -0.1,1.9 -1.27,1.92z"/>
 </g>
</svg>
