<?xml version="1.0" encoding="UTF-8"?>
<!DOCTYPE svg PUBLIC "-//W3C//DTD SVG 1.1//EN" "http://www.w3.org/Graphics/SVG/1.1/DTD/svg11.dtd">
<!-- Creator: CorelDRAW 2020 (64 Bit) -->
<svg xmlns="http://www.w3.org/2000/svg" xml:space="preserve" width="9.4402mm" height="13.7285mm" version="1.1" style="shape-rendering:geometricPrecision; text-rendering:geometricPrecision; image-rendering:optimizeQuality; fill-rule:evenodd; clip-rule:evenodd"
viewBox="0 0 75.64 110"
 xmlns:xlink="http://www.w3.org/1999/xlink"
 xmlns:xodm="http://www.corel.com/coreldraw/odm/2003">
 <defs>
  <style type="text/css">
   <![CDATA[
    .fil0 {fill:#FEFEFE}
   ]]>
  </style>
 </defs>
 <g id="Camada_x0020_1">
  <metadata id="CorelCorpID_0Corel-Layer"/>
  <path class="fil0" d="M70.39 18.84c-6.68,-11.52 -18.53,-18.56 -31.72,-18.83 -0.56,-0.01 -1.13,-0.01 -1.69,0 -13.19,0.27 -25.04,7.31 -31.72,18.83 -6.82,11.78 -7.01,25.92 -0.5,37.84l27.28 49.93c0.01,0.02 0.02,0.04 0.04,0.07 1.2,2.09 3.35,3.33 5.75,3.33 2.4,0 4.55,-1.25 5.75,-3.33 0.01,-0.02 0.02,-0.04 0.04,-0.07l27.28 -49.93c6.51,-11.92 6.32,-26.06 -0.5,-37.84zm-32.57 31.01c-8.53,0 -15.47,-6.94 -15.47,-15.47 0,-8.53 6.94,-15.47 15.47,-15.47 8.53,0 15.47,6.94 15.47,15.47 0,8.53 -6.94,15.47 -15.47,15.47z"/>
 </g>
</svg>
