<?xml version="1.0" encoding="UTF-8"?>
<!DOCTYPE svg PUBLIC "-//W3C//DTD SVG 1.1//EN" "http://www.w3.org/Graphics/SVG/1.1/DTD/svg11.dtd">
<!-- Creator: CorelDRAW 2020 (64 Bit) -->
<svg xmlns="http://www.w3.org/2000/svg" xml:space="preserve" width="28.3263mm" height="28.3264mm" version="1.1" style="shape-rendering:geometricPrecision; text-rendering:geometricPrecision; image-rendering:optimizeQuality; fill-rule:evenodd; clip-rule:evenodd"
viewBox="0 0 80.35 80.36"
 xmlns:xlink="http://www.w3.org/1999/xlink"
 xmlns:xodm="http://www.corel.com/coreldraw/odm/2003">
 <defs>
  <style type="text/css">
   <![CDATA[
    .fil0 {fill:black;fill-rule:nonzero}
   ]]>
  </style>
 </defs>
 <g id="Camada_x0020_1">
  <metadata id="CorelCorpID_0Corel-Layer"/>
  <path class="fil0" d="M78 44.4l-24.31 0 -3.62 -11.77c-0.03,-0.17 -0.08,-0.33 -0.15,-0.48l-5.54 -18.03c1.73,-1.29 2.86,-3.35 2.86,-5.67 0,-3.89 -3.17,-7.06 -7.06,-7.06 -3.89,0 -7.06,3.17 -7.06,7.06 0,2.32 1.12,4.38 2.86,5.67l-5.54 18.03c-0.07,0.15 -0.12,0.31 -0.15,0.48l-3.62 11.77 -24.31 0c-1.3,0 -2.35,1.05 -2.35,2.35l0 31.24c0,1.3 1.05,2.35 2.35,2.35l75.65 0c1.3,0 2.35,-1.05 2.35,-2.35l0 -31.24c0,-1.3 -1.05,-2.35 -2.35,-2.35zm-62.62 12.98c-1.23,0 -1.96,0.68 -1.96,2.2l0 5.82c0,1.52 0.73,2.2 1.96,2.2 1.23,0 1.98,-0.68 1.98,-2.2l0 -5.82c0,-1.52 -0.75,-2.2 -1.98,-2.2zm49.94 0l-2.18 0 0 4.09 2.18 0c1.23,0 1.98,-0.51 1.98,-2.04 0,-1.54 -0.75,-2.04 -1.98,-2.04zm-20.67 7.05l3.21 0 -1.6 -5.89 -1.6 5.89zm13.43 -40.92c0.4,0.27 0.86,0.4 1.31,0.4 0.76,0 1.5,-0.37 1.96,-1.04 2.87,-4.27 4.39,-9.26 4.39,-14.43 0,-2.23 -0.29,-4.45 -0.85,-6.6 -0.33,-1.26 -1.62,-2.01 -2.88,-1.68 -1.26,0.33 -2.01,1.62 -1.68,2.88 0.46,1.76 0.7,3.57 0.7,5.4 0,4.23 -1.24,8.31 -3.59,11.8 -0.73,1.08 -0.44,2.54 0.64,3.27zm-7.82 -5.24c0.4,0.27 0.86,0.4 1.31,0.4 0.76,0 1.5,-0.36 1.96,-1.04 1.83,-2.72 2.79,-5.89 2.79,-9.18 0,-1.42 -0.18,-2.83 -0.54,-4.2 -0.33,-1.26 -1.62,-2.01 -2.88,-1.68 -1.26,0.33 -2.01,1.62 -1.68,2.88 0.26,0.98 0.39,1.99 0.39,3 0,2.35 -0.69,4.61 -1.99,6.55 -0.73,1.08 -0.44,2.54 0.64,3.27zm-29.87 5.8c0.46,0 0.92,-0.13 1.33,-0.41 1.07,-0.73 1.35,-2.2 0.62,-3.27 -2.41,-3.52 -3.68,-7.65 -3.68,-11.93 0,-1.86 0.24,-3.7 0.72,-5.49 0.34,-1.26 -0.41,-2.55 -1.67,-2.88 -1.26,-0.34 -2.55,0.41 -2.88,1.67 -0.58,2.18 -0.88,4.44 -0.88,6.7 0,5.24 1.56,10.28 4.5,14.59 0.46,0.67 1.19,1.03 1.95,1.03zm7.78 -5.31c0.46,0 0.92,-0.13 1.33,-0.41 1.07,-0.73 1.35,-2.2 0.62,-3.27 -1.34,-1.96 -2.04,-4.25 -2.04,-6.63 0,-1.03 0.13,-2.06 0.4,-3.05 0.34,-1.26 -0.41,-2.55 -1.67,-2.88 -1.26,-0.34 -2.55,0.41 -2.88,1.67 -0.37,1.39 -0.56,2.82 -0.56,4.27 0,3.33 0.99,6.54 2.86,9.29 0.46,0.67 1.19,1.03 1.95,1.03zm12 -2.3l4.38 14.26 -8.77 0 4.38 -14.26zm-5.83 18.97l11.66 0 2.75 8.97 -17.17 0 2.75 -8.97zm-13.56 29.96c0,3.78 -2.37,5.19 -5.41,5.19 -3.03,0 -5.38,-1.41 -5.38,-5.19l0 -5.82c0,-3.78 2.35,-5.19 5.38,-5.19 3.03,0 5.41,1.41 5.41,5.19l0 5.82zm13.42 4c0,0.7 -0.86,1.05 -1.71,1.05 -0.79,0 -1.49,-0.15 -1.91,-0.92l-4.17 -7.6 0 7.47c0,0.7 -0.86,1.05 -1.71,1.05 -0.86,0 -1.71,-0.35 -1.71,-1.05l0 -13.95c0,-0.73 0.86,-1.05 1.71,-1.05 1.23,0 1.69,0.11 2.53,1.71l3.56 6.79 0 -7.47c0,-0.73 0.86,-1.03 1.71,-1.03 0.86,0 1.71,0.31 1.71,1.03l0 13.97zm16.24 1.05c-0.55,0 -0.99,-0.18 -1.12,-0.64l-0.75 -2.75 -4.64 0 -0.75 2.75c-0.13,0.46 -0.57,0.64 -1.12,0.64 -0.94,0 -2.2,-0.59 -2.2,-1.41 0,-0.07 0.02,-0.15 0.04,-0.24l4.09 -13.4c0.24,-0.77 1.23,-1.14 2.24,-1.14 1.01,0 2,0.37 2.24,1.14l4.11 13.4c0.02,0.09 0.04,0.18 0.04,0.24 -0,0.81 -1.25,1.41 -2.2,1.41zm6.9 -1.05c0,0.7 -0.86,1.05 -1.71,1.05 -0.86,0 -1.71,-0.35 -1.71,-1.05l0 -13.97c0,-0.73 0.86,-1.03 1.71,-1.03 0.86,0 1.71,0.31 1.71,1.03l0 13.97zm11.36 1.19c-0.44,0 -0.86,-0.18 -1.1,-0.64l-3.01 -5.84 -1.45 0 0 5.3c0,0.7 -0.86,1.05 -1.71,1.05 -0.86,0 -1.71,-0.35 -1.71,-1.05l0 -13.97c0,-0.55 0.42,-1.03 1.05,-1.03l4.55 0c3.01,0 5.4,1.12 5.4,4.7 0,2.46 -1.12,3.87 -2.66,4.46l2.68 4.86c0.09,0.13 0.11,0.29 0.11,0.4 0,0.86 -1.14,1.78 -2.15,1.78z"/>
 </g>
</svg>
